<?xml version="1.0" encoding="utf-8"?>
<!-- Generator: Adobe Illustrator 23.0.1, SVG Export Plug-In . SVG Version: 6.00 Build 0)  -->
<!--<svg version="1.1" id="Layer_1" xmlns="http://www.w3.org/2000/svg" xmlns:xlink="http://www.w3.org/1999/xlink" x="0px" y="0px"
	 viewBox="0 0 180 24" style="enable-background:new 0 0 180 24;" xml:space="preserve">
<style type="text/css">
	.st0{fill:#4A4A4A;}
</style>
<path class="st0" d="M3.9,8.1c-3.5-0.1-4.3,4.4-3.8,7c0.3,1.5,1,3,2.5,3.6c1.4,0.6,3.3,0.4,4.6-0.4v-2.1C6.3,16.9,5,17.3,4,17
	c-1.1-0.4-1.4-1.7-1.4-2.7h5.1C7.7,11.7,7.4,8,3.9,8.1z M2.6,12.5c0-0.8,0.3-2.3,1.3-2.4c1.1,0,1.3,1.6,1.3,2.4H2.6z M14.3,11.9
	l3.2,7.1h-2.7l-2-5l-1.8,5H8.3l3.2-7.2L8.5,5h2.6l1.8,4.6L14.5,5h2.8L14.3,11.9z M23.3,8.2c-1,0-1.9,0.6-2.3,1.5h-0.1l-0.4-1.4h-2
	v15.3h2.5c0-1.9,0.2-4-0.2-5.9h0.1c0.6,1.2,2,1.7,3.3,1.2c1.3-0.6,1.8-2.3,2-3.7C26.7,13,26.5,8.1,23.3,8.2L23.3,8.2z M22.5,17
	c-1.6,0-1.4-2.6-1.4-3.6c0-1,0.1-3.7,1.8-3c1.3,0.6,1,3.3,0.9,4.5C23.7,15.6,23.5,16.9,22.5,17L22.5,17z M32.7,8.2
	c0.3,0,0.6,0,0.9,0.1l-0.3,2.4c-2.6-0.7-2.6,2.3-2.6,4.1c0,1.4,0,2.8,0,4.2h-2.6V8.3h2.1l0.3,1.7l0,0C30.9,9.1,31.7,8.1,32.7,8.2
	L32.7,8.2z M38.3,8.2c-3.5-0.1-4.3,4.4-3.8,7c0.3,1.5,1,3,2.5,3.6c1.4,0.6,3.3,0.4,4.7-0.4v-2.1c-0.9,0.5-2.2,1-3.2,0.6
	c-1-0.4-1.4-1.7-1.4-2.7h5.1c0-1.1,0.1-2.2-0.2-3.2C41.4,9.4,40.2,8,38.3,8.2L38.3,8.2z M37,12.5c0-0.8,0.2-2.2,1.2-2.3
	c1.2-0.2,1.4,1.5,1.4,2.3H37z M49.2,14.6c0.6,1.4,0.2,3.3-1.2,4c-1.4,0.8-3.4,0.6-4.7-0.1v-2.2c0.8,0.6,4.2,1.7,3.6-0.5
	c-0.2-0.8-1.1-1.2-1.7-1.6c-0.6-0.4-1.2-0.9-1.5-1.5c-0.7-1.4-0.3-3.3,1.1-4.1c1.4-0.8,3.3-0.5,4.7,0.3l-0.8,1.8
	c-0.5-0.3-1.4-0.7-2-0.5c-0.7,0.2-0.9,0.9-0.6,1.4c0.4,0.7,1.3,1,1.9,1.4C48.4,13.4,48.9,13.9,49.2,14.6L49.2,14.6z M56.5,14.6
	c0.5,1.4,0.2,3.2-1.2,4c-1.4,0.8-3.4,0.6-4.7-0.1v-2.2c0.8,0.6,4.2,1.7,3.6-0.5c-0.2-0.8-1.1-1.2-1.7-1.6c-0.6-0.4-1.2-0.9-1.5-1.5
	c-0.8-1.4-0.3-3.3,1.1-4.1c1.4-0.8,3.3-0.5,4.7,0.3l-0.8,1.8c-0.5-0.3-1.4-0.7-2.1-0.5c-0.6,0.2-0.9,0.8-0.6,1.4
	c0.3,0.7,1.3,1,1.9,1.4C55.7,13.4,56.2,13.9,56.5,14.6L56.5,14.6z M60.6,5l-3.4,13.9h2.6l0.8-3.5h3.6l0.8,3.5h2.6L64.2,5L60.6,5z
	 M61.1,13.2c0.5-2.1,1-4.2,1.3-6.3c0,1.1,0.4,2.4,0.7,3.5c0.2,0.9,0.4,1.9,0.6,2.8H61.1z M73.5,8.2c-1,0-1.9,0.6-2.3,1.5h-0.1
	l-0.4-1.4h-2v15.3h2.5c0-1.9,0.2-4-0.1-5.9h0.1c0.7,1.3,2.3,1.8,3.5,1c1.2-0.7,1.6-2.4,1.8-3.7C76.8,12.9,76.6,8.2,73.5,8.2
	L73.5,8.2z M72.6,17c-1.6,0-1.4-2.6-1.4-3.6c0-1,0.1-3.8,1.9-3c1.3,0.6,1,3.4,0.8,4.5C73.9,15.6,73.6,16.9,72.6,17L72.6,17z
	 M83.1,8.2c-1,0-1.9,0.6-2.3,1.5h-0.1l-0.4-1.4h-2v15.3h2.5c0-1.9,0.2-4-0.2-5.9h0.1c0.6,1.2,2,1.7,3.3,1.2c1.3-0.6,1.8-2.3,2-3.7
	C86.5,13,86.3,8.1,83.1,8.2L83.1,8.2z M82.3,17c-1.6,0-1.4-2.6-1.4-3.6c0-0.9,0.1-3.6,1.8-3c1.4,0.5,1.1,3.4,1,4.5
	C83.5,15.6,83.3,16.9,82.3,17L82.3,17z M93,5h6.2v2.2h-3.7v3.8h3.4v2.3h-3.4v5.6H93V5z M105.3,8.1c0.3,0,0.6,0,0.9,0.1l-0.3,2.4
	c-2.6-0.7-2.6,2.3-2.6,4.1c0,1.4,0,2.8,0,4.2h-2.6V8.3h2.1l0.3,1.7h0.1C103.6,9.1,104.3,8.2,105.3,8.1z M111,8.1
	c-1.2,0-2.4,0.3-3.4,1l0.9,1.8c0.7-0.5,2.3-1.2,3.1-0.4c0.5,0.5,0.4,1.3,0.4,1.9c-2.2,0-4.8,0.2-5.1,2.9c-0.1,1.3,0.2,3.1,1.6,3.6
	c1.4,0.6,2.9-0.2,3.6-1.5l0,0l0.5,1.4h1.8c0-1.7,0-3.5,0-5.2c0-0.6,0-1.2,0-1.8C114.3,9.8,113.2,8,111,8.1L111,8.1z M111.9,14.9
	c0,0.8-0.3,1.9-1.1,2.2c-0.7,0.2-1.2-0.2-1.3-0.8c-0.3-1.8,0.9-2.3,2.4-2.3V14.9z M128.8,9.1c1,1.6,0.7,3.7,0.7,5.5
	c0,1.5,0,2.9,0,4.4h-2.6c0-1.4,0-2.8,0-4.2c0-1.1,0.3-3.5-0.5-4.3c-1.3-1.1-2,1-2.1,1.9c-0.1,0.7-0.1,1.5-0.1,2.2c0,1.4,0,2.9,0,4.3
	h-2.6c0-1.4,0-2.8,0-4.1c0-1.1,0.3-3.5-0.5-4.3c-1.3-1.1-2,1.1-2.1,2c-0.1,0.7,0,1.5,0,2.2c0,1.4,0,2.8,0,4.3h-2.5V8.3h2l0.3,1.4
	h0.2c0.9-2.2,4.4-2,5,0.3h0.1C124.7,8.1,127.5,7.4,128.8,9.1z M135.1,8.1c-3.5-0.1-4.3,4.4-3.8,7c0.3,1.5,1,3,2.5,3.6
	c1.4,0.6,3.3,0.4,4.7-0.4v-2.1c-0.9,0.6-2.2,1-3.2,0.7c-1.1-0.4-1.4-1.7-1.4-2.7h5.1c0-1,0.1-2.1-0.2-3.1C138.2,9.5,137,8,135.1,8.1
	z M133.8,12.5c0-0.8,0.3-2.3,1.3-2.4c1.1,0,1.3,1.6,1.2,2.4H133.8z M150.8,8.3h2.5l-2.1,10.6h-3.3c-0.5-2.9-1-5.8-1.4-8.7l0,0
	c-0.3,2.9-0.9,5.9-1.4,8.8h-3.3l-2.1-10.6h2.5c0.5,2.9,1.1,5.7,1.3,8.6l0,0c0-2.9,0.9-5.8,1.4-8.6h3.3c0.5,2.8,1.2,5.7,1.3,8.6l0,0
	C149.6,14,150.3,11.2,150.8,8.3z M158.3,8.1c-5.7-0.3-5.6,11,0.1,10.9c2.8,0,4-2.8,4-5.3C162.4,11.3,161.4,8,158.3,8.1L158.3,8.1z
	 M158.3,16.9c-1.7,0-1.6-3-1.5-4.1c0.1-1.1,0.6-3.4,2.2-2.4c1.2,0.8,1,3.2,0.8,4.4C159.7,15.7,159.4,17,158.3,16.9L158.3,16.9z
	 M168.7,8.1c0.3,0,0.7,0.1,1,0.2l-0.3,2.4c-2.6-0.7-2.6,2.3-2.6,4.1c0,1.4,0,2.8,0,4.2h-2.7V8.3h2.1l0.3,1.7h0.1
	C166.9,9.1,167.6,8.1,168.7,8.1L168.7,8.1z M178.8,18.9h-2.7l-1.9-4.5l-1,0.9v3.6h-2.5V4.1h2.5c0,3,0,6.1-0.1,9.1l0,0
	c0.8-1.7,1.8-3.3,2.8-4.9h2.7l-2.7,4.4L178.8,18.9z"/>
</svg>-->




<svg
	version="1.1" id="Layer_1" xmlns="http://www.w3.org/2000/svg" xmlns:xlink="http://www.w3.org/1999/xlink" x="0px" y="0px"
	 viewBox="0 0 180 24" style="enable-background:new 0 0 180 24;" xml:space="preserve">
<style type="text/css">
	.st0{fill:#7f69ff;}
</style>
	width="200" height="25" viewBox="0 0 179 19" fill="none" xmlns="http://www.w3.org/2000/svg">
	<path d="M12.557 6.55145L19.8456 1.17791H24.5655L14.9587 8.13079L24.7952 15.1992H20.0336L16.2953 12.4643L12.557 9.72936L5.0386 15.1992H0.297852L10.1552 8.13079L0.527579 1.17791H5.22656L8.89178 3.86468L12.557 6.55145ZM47.9351 10.1049C47.9351 11.6907 47.1485 12.9682 45.5751 13.9377C44.0018 14.9071 41.8716 15.3918 39.1845 15.3918C36.4417 15.3918 34.2837 14.9906 32.7103 14.1881V19.2053H28.8468V4.77953H32.3762L32.5642 5.93513C34.1375 5.03633 36.3233 4.58695 39.1218 4.58695C41.8368 4.58695 43.981 5.0588 45.5542 6.00255C47.1414 6.9463 47.9351 8.25919 47.9351 9.94121V10.1049ZM44.0714 9.90271C44.0714 8.72784 43.5285 7.80015 42.4425 7.11961C41.3565 6.43911 39.8668 6.09886 37.9732 6.09886C35.6342 6.09886 33.8799 6.57713 32.7103 7.53374V12.5124C33.866 13.4626 35.6342 13.9377 38.015 13.9377C39.8667 13.9377 41.3356 13.6006 42.4216 12.9265C43.5215 12.246 44.0714 11.2381 44.0714 9.90271ZM62.2409 15.3918C59.1778 15.3918 56.6856 14.9296 54.7642 14.0051C52.8429 13.0742 51.8822 11.8319 51.8822 10.2783V9.95086C51.8822 8.91721 52.3068 7.99598 53.1561 7.18704C54.0194 6.37169 55.2168 5.73614 56.7483 5.28031C58.2937 4.81807 59.9645 4.58695 61.7605 4.58695C64.6983 4.58695 66.9816 5.03312 68.6106 5.92551C70.2395 6.8179 71.0541 8.09545 71.0541 9.75824V10.4998H55.7458C55.8015 11.527 56.4489 12.3583 57.6881 12.9939C58.9411 13.6231 60.5283 13.9377 62.4496 13.9377C63.8141 13.9377 64.9698 13.8093 65.9165 13.5525C66.8633 13.2957 67.6917 12.9554 68.4017 12.5317L70.7617 13.3791C68.8682 14.7209 66.0279 15.3918 62.2409 15.3918ZM61.7605 6.05071C60.2011 6.05071 58.8924 6.31392 57.8342 6.84034C56.7761 7.36039 56.1217 8.09225 55.8711 9.036H67.1904V8.90119C67.079 7.99598 66.55 7.29617 65.6032 6.80184C64.6565 6.3011 63.3756 6.05071 61.7605 6.05071ZM86.4667 6.3781C85.8819 6.33319 85.2485 6.31071 84.5662 6.31071C82.0322 6.31071 80.3128 6.80825 79.4078 7.80336V15.1992H75.5441V4.77953H79.3034L79.366 5.98328C80.633 5.05239 82.429 4.58695 84.7542 4.58695C85.506 4.58695 86.0769 4.63186 86.4667 4.72176V6.3781ZM96.3245 2.25648V4.77953H100.543V6.15663H96.3245V12.6184C96.3245 13.0357 96.5116 13.3502 96.8876 13.5621C97.2637 13.7675 97.9044 13.8703 98.8097 13.8703C99.2552 13.8703 99.8674 13.8318 100.647 13.7547V15.1992C99.6304 15.3276 98.6422 15.3918 97.6816 15.3918C95.9556 15.3918 94.6537 15.151 93.776 14.6695C92.8992 14.1881 92.4608 13.5043 92.4608 12.6184V6.15663H88.3462V4.77953H92.4608V2.25648H96.3245ZM114.639 8.94934C111.201 8.49351 108.694 7.93496 107.122 7.27369C105.562 6.60601 104.782 5.78425 104.782 4.80841C104.782 3.70419 105.736 2.79255 107.644 2.07351C109.565 1.34804 112.057 0.985315 115.12 0.985315C117.208 0.985315 119.067 1.17149 120.696 1.54385C122.339 1.91622 123.606 2.42982 124.497 3.08465C125.402 3.7395 125.854 4.45534 125.854 5.23215H121.824C121.824 4.38471 121.239 3.72024 120.07 3.23873C118.901 2.75081 117.25 2.50686 115.12 2.50686C113.143 2.50686 111.597 2.70908 110.484 3.11355C109.384 3.51159 108.834 4.06692 108.834 4.77953C108.834 5.3509 109.356 5.83561 110.4 6.23367C111.458 6.62528 113.248 6.9848 115.768 7.31223C118.302 7.63966 120.278 8.00239 121.698 8.40041C123.133 8.79202 124.191 9.25105 124.873 9.77751C125.569 10.3039 125.917 10.9235 125.917 11.6361C125.917 12.7725 124.956 13.6841 123.035 14.371C121.114 15.0515 118.545 15.3918 115.329 15.3918C113.24 15.3918 111.291 15.2088 109.481 14.8429C107.671 14.4705 106.272 13.9634 105.283 13.3214C104.308 12.6794 103.822 11.9507 103.822 11.1354H107.852C107.852 11.9828 108.528 12.6537 109.878 13.148C111.243 13.6359 113.06 13.8799 115.329 13.8799C117.445 13.8799 119.067 13.6809 120.195 13.2828C121.322 12.8848 121.886 12.3423 121.886 11.6554C121.886 10.9684 121.364 10.4388 120.32 10.0664C119.276 9.68761 117.382 9.31527 114.639 8.94934ZM129.446 9.89305C129.446 8.8723 129.878 7.95423 130.742 7.13888C131.619 6.32353 132.83 5.69439 134.376 5.25142C135.935 4.80841 137.71 4.58695 139.701 4.58695C142.778 4.58695 145.263 5.07807 147.156 6.06032C149.064 7.04257 150.017 8.34905 150.017 9.97975V10.1049C150.017 11.1193 149.593 12.0309 148.744 12.8398C147.908 13.6423 146.704 14.2683 145.131 14.7177C143.571 15.1671 141.775 15.3918 139.743 15.3918C136.68 15.3918 134.195 14.9007 132.287 13.9184C130.394 12.9362 129.446 11.6361 129.446 10.0182V9.89305ZM133.331 10.1049C133.331 11.2605 133.909 12.1882 135.064 12.888C136.234 13.5878 137.794 13.9377 139.743 13.9377C141.706 13.9377 143.265 13.5846 144.421 12.8784C145.576 12.1658 146.154 11.1706 146.154 9.89305C146.154 8.75031 145.562 7.82583 144.379 7.11961C143.21 6.40702 141.65 6.05071 139.701 6.05071C137.794 6.05071 136.255 6.40057 135.086 7.10038C133.916 7.80015 133.331 8.80167 133.331 10.1049ZM156.764 15.1992V6.15663H153.192V4.77953H156.764V3.71061C156.764 2.59352 157.411 1.73004 158.705 1.12014C160 0.510234 161.831 0.205284 164.198 0.205284C165.089 0.205284 165.974 0.259854 166.851 0.368994L166.642 1.8135C165.987 1.75572 165.291 1.72683 164.553 1.72683C163.301 1.72683 162.333 1.89696 161.65 2.23721C160.968 2.57106 160.627 3.05256 160.627 3.68172V4.77953H165.452V6.15663H160.627V15.1992H156.764ZM174.974 2.25648V4.77953H179.194V6.15663H174.974V12.6184C174.974 13.0357 175.162 13.3502 175.538 13.5621C175.914 13.7675 176.555 13.8703 177.46 13.8703C177.905 13.8703 178.518 13.8318 179.298 13.7547V15.1992C178.281 15.3276 177.293 15.3918 176.332 15.3918C174.606 15.3918 173.304 15.151 172.427 14.6695C171.549 14.1881 171.111 13.5043 171.111 12.6184V6.15663H166.997V4.77953H171.111V2.25648H174.974Z" fill="#4A4A4A"/>
</svg>
