<?xml version="1.0" encoding="utf-8"?>
<!-- Generator: Adobe Illustrator 23.1.0, SVG Export Plug-In . SVG Version: 6.00 Build 0)  -->
<!--<svg version="1.1" id="_x31_" xmlns="http://www.w3.org/2000/svg" xmlns:xlink="http://www.w3.org/1999/xlink" x="0px" y="0px"
	 viewBox="0 0 46 30" style="enable-background:new 0 0 46 30;" xml:space="preserve">
<style type="text/css">
	.st0{fill:#FFFFFF;}
</style>
<path id="_x33_" class="st0" d="M25.8,0h-3.2l-6.7,29.9l-5.7-15.2L15.9,0h-4.2l-2,6.2L9.4,7.1C9.2,7.7,9,8.3,8.8,8.9
	c-0.2,0.6-0.3,1.3-0.5,1.9c-0.2-1.1-0.7-2.7-1.5-5L4.7,0h-4l5.5,14.8L0.3,30h4.4l1.8-5.4l0.4-1.1l0.7-2.1c0.3-0.8,0.4-1.6,0.5-2.5
	c0.1,0.7,0.3,1.5,0.5,2.4c0.3,0.9,0.6,1.9,1,3.1l2,5.7h4.2h0h4l1.2-5.8h6.1l1.2,5.8h4.1L25.8,0z M21.6,21l0.8-3.8
	c0.4-2.1,0.7-4,1-5.9c0.3-1.8,0.5-3.7,0.7-5.5c0.4,3.7,0.9,7.2,1.5,10.4l0.9,4.8H21.6z"/>
<polygon id="_x32_" class="st0" points="46,0 35,0 35,30 39.1,30 39.1,16.3 45.3,16.3 45.3,12.9 39.1,12.9 39.1,3.4 46,3.4 "/>
</svg>-->



<svg version="1.1" id="_x31_" xmlns="http://www.w3.org/2000/svg" xmlns:xlink="http://www.w3.org/1999/xlink" x="0px" y="0px"
	 viewBox="0 0 46 30" style="enable-background:new 0 0 46 30;" xml:space="preserve">
<style type="text/css">
	.st0{fill:#FFFFFF;}
</style>
	
	width="46" height="30" viewBox="0 0 46 30" fill="none" xmlns="http://www.w3.org/2000/svg">
	<g clip-path="url(#clip0_315:19)">
		<mask id="path-1-outside-1_315:19" maskUnits="userSpaceOnUse" x="-1" y="1" width="46" height="28" fill="black">
			<rect fill="white" x="-1" y="1" width="46" height="28"/>
			<path d="M7.13091 5.72347L10.1815 2H12.1569L8.13611 6.81783L12.2531 11.7157H10.2601L7.13091 7.92552L3.98418 11.7157H2L6.1257 6.81783L2.09615 2H4.06285L7.13091 5.72347Z"/>
			<path d="M21.938 8.18577C21.938 9.28457 21.6087 10.1698 20.9503 10.8416C20.2918 11.5133 19.4002 11.8492 18.2755 11.8492C17.1276 11.8492 16.2244 11.5711 15.5659 11.0151V14.4916H13.9488V4.49566H15.426L15.5047 5.29641C16.1632 4.6736 17.078 4.3622 18.2493 4.3622C19.3856 4.3622 20.283 4.68917 20.9415 5.34312C21.6058 5.99706 21.938 6.9068 21.938 8.07233V8.18577ZM20.3209 8.04564C20.3209 7.23154 20.0937 6.58872 19.6391 6.11717C19.1846 5.64562 18.5611 5.40985 17.7686 5.40985C16.7896 5.40985 16.0554 5.74127 15.5659 6.40411V9.85399C16.0495 10.5124 16.7896 10.8416 17.7861 10.8416C18.5611 10.8416 19.1759 10.608 19.6304 10.1409C20.0907 9.66937 20.3209 8.97094 20.3209 8.04564Z"/>
			<path d="M27.9255 11.8492C26.6435 11.8492 25.6004 11.5289 24.7963 10.8883C23.9921 10.2432 23.59 9.38244 23.59 8.30588V8.079C23.59 7.36278 23.7677 6.7244 24.1232 6.16388C24.4845 5.59891 24.9856 5.1585 25.6266 4.84265C26.2735 4.52235 26.9727 4.3622 27.7245 4.3622C28.954 4.3622 29.9097 4.67138 30.5915 5.28973C31.2733 5.90809 31.6142 6.79336 31.6142 7.94554V8.45936H25.2071C25.2304 9.17113 25.5014 9.74722 26.02 10.1876C26.5444 10.6236 27.2087 10.8416 28.0129 10.8416C28.584 10.8416 29.0676 10.7526 29.4639 10.5747C29.8601 10.3967 30.2069 10.1609 30.5041 9.86734L31.4918 10.4545C30.6993 11.3843 29.5105 11.8492 27.9255 11.8492ZM27.7245 5.37648C27.0718 5.37648 26.524 5.55887 26.0812 5.92366C25.6383 6.28399 25.3644 6.79113 25.2595 7.44508H29.9971V7.35166C29.9505 6.7244 29.729 6.23951 29.3328 5.89697C28.9365 5.54998 28.4004 5.37648 27.7245 5.37648Z"/>
			<path d="M38.0649 5.60336C37.8202 5.57222 37.555 5.55665 37.2695 5.55665C36.2089 5.55665 35.4893 5.90142 35.1105 6.59095V11.7157H33.4934V4.49566H35.0668L35.093 5.32977C35.6233 4.68473 36.375 4.3622 37.3482 4.3622C37.6629 4.3622 37.9018 4.39334 38.0649 4.45562V5.60336Z"/>
			<path d="M42.1906 2.74736V4.49566H43.9563V5.44988H42.1906V9.92739C42.1906 10.2165 42.2693 10.4345 42.4266 10.5813C42.584 10.7237 42.852 10.7949 43.2308 10.7949C43.4173 10.7949 43.6737 10.7682 44 10.7148V11.7157C43.5746 11.8047 43.1609 11.8492 42.7588 11.8492C42.0362 11.8492 41.4914 11.6824 41.1242 11.3487C40.7571 11.0151 40.5736 10.5413 40.5736 9.92739V5.44988H38.8516V4.49566H40.5736V2.74736H42.1906Z"/>
			<path d="M11.8335 23.5358C10.3942 23.22 9.34527 22.833 8.68678 22.3748C8.03413 21.9121 7.7078 21.3427 7.7078 20.6665C7.7078 19.9013 8.10697 19.2696 8.90531 18.7714C9.70947 18.2687 10.7525 18.0174 12.0345 18.0174C12.9086 18.0174 13.6866 18.1464 14.3684 18.4044C15.056 18.6624 15.5863 19.0183 15.9592 19.472C16.338 19.9258 16.5274 20.4218 16.5274 20.9601H14.8404C14.8404 20.3729 14.5956 19.9125 14.1061 19.5788C13.6166 19.2407 12.9261 19.0717 12.0345 19.0717C11.2071 19.0717 10.5602 19.2118 10.0941 19.4921C9.63372 19.7679 9.40354 20.1527 9.40354 20.6465C9.40354 21.0424 9.62206 21.3783 10.0591 21.6541C10.502 21.9254 11.2508 22.1746 12.3055 22.4014C13.3661 22.6283 14.1935 22.8797 14.7879 23.1555C15.3881 23.4268 15.831 23.7449 16.1165 24.1097C16.4079 24.4745 16.5536 24.9038 16.5536 25.3976C16.5536 26.185 16.1515 26.8167 15.3473 27.2927C14.5432 27.7642 13.4681 28 12.122 28C11.2479 28 10.4321 27.8732 9.67451 27.6196C8.91696 27.3616 8.33132 27.0102 7.91759 26.5653C7.50968 26.1205 7.30572 25.6156 7.30572 25.0506H8.99272C8.99272 25.6378 9.27534 26.1027 9.84058 26.4452C10.4117 26.7833 11.1721 26.9524 12.122 26.9524C13.0077 26.9524 13.6866 26.8144 14.1586 26.5386C14.6306 26.2628 14.8666 25.8869 14.8666 25.4109C14.8666 24.9349 14.6481 24.5679 14.211 24.3099C13.774 24.0474 12.9815 23.7894 11.8335 23.5358Z"/>
			<path d="M18.0308 24.1898C18.0308 23.4825 18.2114 22.8463 18.5727 22.2813C18.9399 21.7164 19.4468 21.2804 20.0937 20.9734C20.7463 20.6665 21.4893 20.513 22.3226 20.513C23.6104 20.513 24.6506 20.8533 25.4431 21.534C26.2414 22.2146 26.6406 23.1199 26.6406 24.2498V24.3366C26.6406 25.0395 26.4629 25.6712 26.1074 26.2317C25.7578 26.7878 25.2537 27.2215 24.5952 27.5329C23.9426 27.8443 23.1908 28 22.3401 28C21.0581 28 20.0179 27.6597 19.2196 26.979C18.4271 26.2984 18.0308 25.3976 18.0308 24.2765V24.1898ZM19.6566 24.3366C19.6566 25.1373 19.8984 25.7802 20.3821 26.265C20.8716 26.7499 21.5242 26.9924 22.3401 26.9924C23.1617 26.9924 23.8144 26.7477 24.298 26.2584C24.7817 25.7646 25.0235 25.0751 25.0235 24.1898C25.0235 23.3979 24.7759 22.7573 24.2805 22.268C23.7911 21.7742 23.1384 21.5273 22.3226 21.5273C21.5242 21.5273 20.8803 21.7697 20.3908 22.2546C19.9014 22.7395 19.6566 23.4335 19.6566 24.3366Z"/>
			<path d="M29.4639 27.8665V21.6007H27.9692V20.6465H29.4639V19.9058C29.4639 19.1317 29.7349 18.5334 30.2768 18.1108C30.8187 17.6882 31.585 17.4769 32.5757 17.4769C32.9486 17.4769 33.3186 17.5147 33.6857 17.5903L33.5983 18.5912C33.3245 18.5512 33.0331 18.5312 32.7242 18.5312C32.1998 18.5312 31.7948 18.6491 31.5093 18.8848C31.2237 19.1162 31.081 19.4498 31.081 19.8858V20.6465H33.1001V21.6007H31.081V27.8665H29.4639Z"/>
			<path d="M37.086 18.8982V20.6465H38.8516V21.6007H37.086V26.0782C37.086 26.3674 37.1646 26.5853 37.322 26.7322C37.4793 26.8745 37.7473 26.9457 38.1261 26.9457C38.3126 26.9457 38.569 26.919 38.8953 26.8656V27.8665C38.4699 27.9555 38.0562 28 37.6541 28C36.9315 28 36.3867 27.8332 36.0196 27.4995C35.6524 27.1659 35.4689 26.6921 35.4689 26.0782V21.6007H33.7469V20.6465H35.4689V18.8982H37.086Z"/>
		</mask>
		<path d="M7.13091 5.72347L10.1815 2H12.1569L8.13611 6.81783L12.2531 11.7157H10.2601L7.13091 7.92552L3.98418 11.7157H2L6.1257 6.81783L2.09615 2H4.06285L7.13091 5.72347Z" fill="black"/>
		<path d="M21.938 8.18577C21.938 9.28457 21.6087 10.1698 20.9503 10.8416C20.2918 11.5133 19.4002 11.8492 18.2755 11.8492C17.1276 11.8492 16.2244 11.5711 15.5659 11.0151V14.4916H13.9488V4.49566H15.426L15.5047 5.29641C16.1632 4.6736 17.078 4.3622 18.2493 4.3622C19.3856 4.3622 20.283 4.68917 20.9415 5.34312C21.6058 5.99706 21.938 6.9068 21.938 8.07233V8.18577ZM20.3209 8.04564C20.3209 7.23154 20.0937 6.58872 19.6391 6.11717C19.1846 5.64562 18.5611 5.40985 17.7686 5.40985C16.7896 5.40985 16.0554 5.74127 15.5659 6.40411V9.85399C16.0495 10.5124 16.7896 10.8416 17.7861 10.8416C18.5611 10.8416 19.1759 10.608 19.6304 10.1409C20.0907 9.66937 20.3209 8.97094 20.3209 8.04564Z" fill="black"/>
		<path d="M27.9255 11.8492C26.6435 11.8492 25.6004 11.5289 24.7963 10.8883C23.9921 10.2432 23.59 9.38244 23.59 8.30588V8.079C23.59 7.36278 23.7677 6.7244 24.1232 6.16388C24.4845 5.59891 24.9856 5.1585 25.6266 4.84265C26.2735 4.52235 26.9727 4.3622 27.7245 4.3622C28.954 4.3622 29.9097 4.67138 30.5915 5.28973C31.2733 5.90809 31.6142 6.79336 31.6142 7.94554V8.45936H25.2071C25.2304 9.17113 25.5014 9.74722 26.02 10.1876C26.5444 10.6236 27.2087 10.8416 28.0129 10.8416C28.584 10.8416 29.0676 10.7526 29.4639 10.5747C29.8601 10.3967 30.2069 10.1609 30.5041 9.86734L31.4918 10.4545C30.6993 11.3843 29.5105 11.8492 27.9255 11.8492ZM27.7245 5.37648C27.0718 5.37648 26.524 5.55887 26.0812 5.92366C25.6383 6.28399 25.3644 6.79113 25.2595 7.44508H29.9971V7.35166C29.9505 6.7244 29.729 6.23951 29.3328 5.89697C28.9365 5.54998 28.4004 5.37648 27.7245 5.37648Z" fill="black"/>
		<path d="M38.0649 5.60336C37.8202 5.57222 37.555 5.55665 37.2695 5.55665C36.2089 5.55665 35.4893 5.90142 35.1105 6.59095V11.7157H33.4934V4.49566H35.0668L35.093 5.32977C35.6233 4.68473 36.375 4.3622 37.3482 4.3622C37.6629 4.3622 37.9018 4.39334 38.0649 4.45562V5.60336Z" fill="black"/>
		<path d="M42.1906 2.74736V4.49566H43.9563V5.44988H42.1906V9.92739C42.1906 10.2165 42.2693 10.4345 42.4266 10.5813C42.584 10.7237 42.852 10.7949 43.2308 10.7949C43.4173 10.7949 43.6737 10.7682 44 10.7148V11.7157C43.5746 11.8047 43.1609 11.8492 42.7588 11.8492C42.0362 11.8492 41.4914 11.6824 41.1242 11.3487C40.7571 11.0151 40.5736 10.5413 40.5736 9.92739V5.44988H38.8516V4.49566H40.5736V2.74736H42.1906Z" fill="black"/>
		<path d="M11.8335 23.5358C10.3942 23.22 9.34527 22.833 8.68678 22.3748C8.03413 21.9121 7.7078 21.3427 7.7078 20.6665C7.7078 19.9013 8.10697 19.2696 8.90531 18.7714C9.70947 18.2687 10.7525 18.0174 12.0345 18.0174C12.9086 18.0174 13.6866 18.1464 14.3684 18.4044C15.056 18.6624 15.5863 19.0183 15.9592 19.472C16.338 19.9258 16.5274 20.4218 16.5274 20.9601H14.8404C14.8404 20.3729 14.5956 19.9125 14.1061 19.5788C13.6166 19.2407 12.9261 19.0717 12.0345 19.0717C11.2071 19.0717 10.5602 19.2118 10.0941 19.4921C9.63372 19.7679 9.40354 20.1527 9.40354 20.6465C9.40354 21.0424 9.62206 21.3783 10.0591 21.6541C10.502 21.9254 11.2508 22.1746 12.3055 22.4014C13.3661 22.6283 14.1935 22.8797 14.7879 23.1555C15.3881 23.4268 15.831 23.7449 16.1165 24.1097C16.4079 24.4745 16.5536 24.9038 16.5536 25.3976C16.5536 26.185 16.1515 26.8167 15.3473 27.2927C14.5432 27.7642 13.4681 28 12.122 28C11.2479 28 10.4321 27.8732 9.67451 27.6196C8.91696 27.3616 8.33132 27.0102 7.91759 26.5653C7.50968 26.1205 7.30572 25.6156 7.30572 25.0506H8.99272C8.99272 25.6378 9.27534 26.1027 9.84058 26.4452C10.4117 26.7833 11.1721 26.9524 12.122 26.9524C13.0077 26.9524 13.6866 26.8144 14.1586 26.5386C14.6306 26.2628 14.8666 25.8869 14.8666 25.4109C14.8666 24.9349 14.6481 24.5679 14.211 24.3099C13.774 24.0474 12.9815 23.7894 11.8335 23.5358Z" fill="black"/>
		<path d="M18.0308 24.1898C18.0308 23.4825 18.2114 22.8463 18.5727 22.2813C18.9399 21.7164 19.4468 21.2804 20.0937 20.9734C20.7463 20.6665 21.4893 20.513 22.3226 20.513C23.6104 20.513 24.6506 20.8533 25.4431 21.534C26.2414 22.2146 26.6406 23.1199 26.6406 24.2498V24.3366C26.6406 25.0395 26.4629 25.6712 26.1074 26.2317C25.7578 26.7878 25.2537 27.2215 24.5952 27.5329C23.9426 27.8443 23.1908 28 22.3401 28C21.0581 28 20.0179 27.6597 19.2196 26.979C18.4271 26.2984 18.0308 25.3976 18.0308 24.2765V24.1898ZM19.6566 24.3366C19.6566 25.1373 19.8984 25.7802 20.3821 26.265C20.8716 26.7499 21.5242 26.9924 22.3401 26.9924C23.1617 26.9924 23.8144 26.7477 24.298 26.2584C24.7817 25.7646 25.0235 25.0751 25.0235 24.1898C25.0235 23.3979 24.7759 22.7573 24.2805 22.268C23.7911 21.7742 23.1384 21.5273 22.3226 21.5273C21.5242 21.5273 20.8803 21.7697 20.3908 22.2546C19.9014 22.7395 19.6566 23.4335 19.6566 24.3366Z" fill="black"/>
		<path d="M29.4639 27.8665V21.6007H27.9692V20.6465H29.4639V19.9058C29.4639 19.1317 29.7349 18.5334 30.2768 18.1108C30.8187 17.6882 31.585 17.4769 32.5757 17.4769C32.9486 17.4769 33.3186 17.5147 33.6857 17.5903L33.5983 18.5912C33.3245 18.5512 33.0331 18.5312 32.7242 18.5312C32.1998 18.5312 31.7948 18.6491 31.5093 18.8848C31.2237 19.1162 31.081 19.4498 31.081 19.8858V20.6465H33.1001V21.6007H31.081V27.8665H29.4639Z" fill="black"/>
		<path d="M37.086 18.8982V20.6465H38.8516V21.6007H37.086V26.0782C37.086 26.3674 37.1646 26.5853 37.322 26.7322C37.4793 26.8745 37.7473 26.9457 38.1261 26.9457C38.3126 26.9457 38.569 26.919 38.8953 26.8656V27.8665C38.4699 27.9555 38.0562 28 37.6541 28C36.9315 28 36.3867 27.8332 36.0196 27.4995C35.6524 27.1659 35.4689 26.6921 35.4689 26.0782V21.6007H33.7469V20.6465H35.4689V18.8982H37.086Z" fill="black"/>
		<path d="M7.13091 5.72347L10.1815 2H12.1569L8.13611 6.81783L12.2531 11.7157H10.2601L7.13091 7.92552L3.98418 11.7157H2L6.1257 6.81783L2.09615 2H4.06285L7.13091 5.72347Z" stroke="black" stroke-opacity="0.5" stroke-width="2" mask="url(#path-1-outside-1_315:19)"/>
		<path d="M21.938 8.18577C21.938 9.28457 21.6087 10.1698 20.9503 10.8416C20.2918 11.5133 19.4002 11.8492 18.2755 11.8492C17.1276 11.8492 16.2244 11.5711 15.5659 11.0151V14.4916H13.9488V4.49566H15.426L15.5047 5.29641C16.1632 4.6736 17.078 4.3622 18.2493 4.3622C19.3856 4.3622 20.283 4.68917 20.9415 5.34312C21.6058 5.99706 21.938 6.9068 21.938 8.07233V8.18577ZM20.3209 8.04564C20.3209 7.23154 20.0937 6.58872 19.6391 6.11717C19.1846 5.64562 18.5611 5.40985 17.7686 5.40985C16.7896 5.40985 16.0554 5.74127 15.5659 6.40411V9.85399C16.0495 10.5124 16.7896 10.8416 17.7861 10.8416C18.5611 10.8416 19.1759 10.608 19.6304 10.1409C20.0907 9.66937 20.3209 8.97094 20.3209 8.04564Z" stroke="black" stroke-opacity="0.5" stroke-width="2" mask="url(#path-1-outside-1_315:19)"/>
		<path d="M27.9255 11.8492C26.6435 11.8492 25.6004 11.5289 24.7963 10.8883C23.9921 10.2432 23.59 9.38244 23.59 8.30588V8.079C23.59 7.36278 23.7677 6.7244 24.1232 6.16388C24.4845 5.59891 24.9856 5.1585 25.6266 4.84265C26.2735 4.52235 26.9727 4.3622 27.7245 4.3622C28.954 4.3622 29.9097 4.67138 30.5915 5.28973C31.2733 5.90809 31.6142 6.79336 31.6142 7.94554V8.45936H25.2071C25.2304 9.17113 25.5014 9.74722 26.02 10.1876C26.5444 10.6236 27.2087 10.8416 28.0129 10.8416C28.584 10.8416 29.0676 10.7526 29.4639 10.5747C29.8601 10.3967 30.2069 10.1609 30.5041 9.86734L31.4918 10.4545C30.6993 11.3843 29.5105 11.8492 27.9255 11.8492ZM27.7245 5.37648C27.0718 5.37648 26.524 5.55887 26.0812 5.92366C25.6383 6.28399 25.3644 6.79113 25.2595 7.44508H29.9971V7.35166C29.9505 6.7244 29.729 6.23951 29.3328 5.89697C28.9365 5.54998 28.4004 5.37648 27.7245 5.37648Z" stroke="black" stroke-opacity="0.5" stroke-width="2" mask="url(#path-1-outside-1_315:19)"/>
		<path d="M38.0649 5.60336C37.8202 5.57222 37.555 5.55665 37.2695 5.55665C36.2089 5.55665 35.4893 5.90142 35.1105 6.59095V11.7157H33.4934V4.49566H35.0668L35.093 5.32977C35.6233 4.68473 36.375 4.3622 37.3482 4.3622C37.6629 4.3622 37.9018 4.39334 38.0649 4.45562V5.60336Z" stroke="black" stroke-opacity="0.5" stroke-width="2" mask="url(#path-1-outside-1_315:19)"/>
		<path d="M42.1906 2.74736V4.49566H43.9563V5.44988H42.1906V9.92739C42.1906 10.2165 42.2693 10.4345 42.4266 10.5813C42.584 10.7237 42.852 10.7949 43.2308 10.7949C43.4173 10.7949 43.6737 10.7682 44 10.7148V11.7157C43.5746 11.8047 43.1609 11.8492 42.7588 11.8492C42.0362 11.8492 41.4914 11.6824 41.1242 11.3487C40.7571 11.0151 40.5736 10.5413 40.5736 9.92739V5.44988H38.8516V4.49566H40.5736V2.74736H42.1906Z" stroke="black" stroke-opacity="0.5" stroke-width="2" mask="url(#path-1-outside-1_315:19)"/>
		<path d="M11.8335 23.5358C10.3942 23.22 9.34527 22.833 8.68678 22.3748C8.03413 21.9121 7.7078 21.3427 7.7078 20.6665C7.7078 19.9013 8.10697 19.2696 8.90531 18.7714C9.70947 18.2687 10.7525 18.0174 12.0345 18.0174C12.9086 18.0174 13.6866 18.1464 14.3684 18.4044C15.056 18.6624 15.5863 19.0183 15.9592 19.472C16.338 19.9258 16.5274 20.4218 16.5274 20.9601H14.8404C14.8404 20.3729 14.5956 19.9125 14.1061 19.5788C13.6166 19.2407 12.9261 19.0717 12.0345 19.0717C11.2071 19.0717 10.5602 19.2118 10.0941 19.4921C9.63372 19.7679 9.40354 20.1527 9.40354 20.6465C9.40354 21.0424 9.62206 21.3783 10.0591 21.6541C10.502 21.9254 11.2508 22.1746 12.3055 22.4014C13.3661 22.6283 14.1935 22.8797 14.7879 23.1555C15.3881 23.4268 15.831 23.7449 16.1165 24.1097C16.4079 24.4745 16.5536 24.9038 16.5536 25.3976C16.5536 26.185 16.1515 26.8167 15.3473 27.2927C14.5432 27.7642 13.4681 28 12.122 28C11.2479 28 10.4321 27.8732 9.67451 27.6196C8.91696 27.3616 8.33132 27.0102 7.91759 26.5653C7.50968 26.1205 7.30572 25.6156 7.30572 25.0506H8.99272C8.99272 25.6378 9.27534 26.1027 9.84058 26.4452C10.4117 26.7833 11.1721 26.9524 12.122 26.9524C13.0077 26.9524 13.6866 26.8144 14.1586 26.5386C14.6306 26.2628 14.8666 25.8869 14.8666 25.4109C14.8666 24.9349 14.6481 24.5679 14.211 24.3099C13.774 24.0474 12.9815 23.7894 11.8335 23.5358Z" stroke="black" stroke-opacity="0.5" stroke-width="2" mask="url(#path-1-outside-1_315:19)"/>
		<path d="M18.0308 24.1898C18.0308 23.4825 18.2114 22.8463 18.5727 22.2813C18.9399 21.7164 19.4468 21.2804 20.0937 20.9734C20.7463 20.6665 21.4893 20.513 22.3226 20.513C23.6104 20.513 24.6506 20.8533 25.4431 21.534C26.2414 22.2146 26.6406 23.1199 26.6406 24.2498V24.3366C26.6406 25.0395 26.4629 25.6712 26.1074 26.2317C25.7578 26.7878 25.2537 27.2215 24.5952 27.5329C23.9426 27.8443 23.1908 28 22.3401 28C21.0581 28 20.0179 27.6597 19.2196 26.979C18.4271 26.2984 18.0308 25.3976 18.0308 24.2765V24.1898ZM19.6566 24.3366C19.6566 25.1373 19.8984 25.7802 20.3821 26.265C20.8716 26.7499 21.5242 26.9924 22.3401 26.9924C23.1617 26.9924 23.8144 26.7477 24.298 26.2584C24.7817 25.7646 25.0235 25.0751 25.0235 24.1898C25.0235 23.3979 24.7759 22.7573 24.2805 22.268C23.7911 21.7742 23.1384 21.5273 22.3226 21.5273C21.5242 21.5273 20.8803 21.7697 20.3908 22.2546C19.9014 22.7395 19.6566 23.4335 19.6566 24.3366Z" stroke="black" stroke-opacity="0.5" stroke-width="2" mask="url(#path-1-outside-1_315:19)"/>
		<path d="M29.4639 27.8665V21.6007H27.9692V20.6465H29.4639V19.9058C29.4639 19.1317 29.7349 18.5334 30.2768 18.1108C30.8187 17.6882 31.585 17.4769 32.5757 17.4769C32.9486 17.4769 33.3186 17.5147 33.6857 17.5903L33.5983 18.5912C33.3245 18.5512 33.0331 18.5312 32.7242 18.5312C32.1998 18.5312 31.7948 18.6491 31.5093 18.8848C31.2237 19.1162 31.081 19.4498 31.081 19.8858V20.6465H33.1001V21.6007H31.081V27.8665H29.4639Z" stroke="black" stroke-opacity="0.5" stroke-width="2" mask="url(#path-1-outside-1_315:19)"/>
		<path d="M37.086 18.8982V20.6465H38.8516V21.6007H37.086V26.0782C37.086 26.3674 37.1646 26.5853 37.322 26.7322C37.4793 26.8745 37.7473 26.9457 38.1261 26.9457C38.3126 26.9457 38.569 26.919 38.8953 26.8656V27.8665C38.4699 27.9555 38.0562 28 37.6541 28C36.9315 28 36.3867 27.8332 36.0196 27.4995C35.6524 27.1659 35.4689 26.6921 35.4689 26.0782V21.6007H33.7469V20.6465H35.4689V18.8982H37.086Z" stroke="black" stroke-opacity="0.5" stroke-width="2" mask="url(#path-1-outside-1_315:19)"/>
	</g>
	<defs>
		<clipPath id="clip0_315:19">
			<rect width="46" height="30" fill="white"/>
		</clipPath>
	</defs>
</svg>


